<!DOCTYPE svg PUBLIC "-//W3C//DTD SVG 20010904//EN" "http://www.w3.org/TR/2001/REC-SVG-20010904/DTD/svg10.dtd">
<svg version="1.0" xmlns="http://www.w3.org/2000/svg" width="1200px" height="439px" viewBox="0 0 12000 4390" preserveAspectRatio="xMidYMid meet">
<g id="layer101" fill="#ec1d24" stroke="none">
<path d="M0 2195 l0 -2195 6000 0 6000 0 0 2195 0 2195 -6000 0 -6000 0 0 -2195z"/>
</g>
<g id="layer102" fill="#0195d9" stroke="none">
<path d="M0 2195 l0 -2195 6000 0 6000 0 0 2195 0 2195 -6000 0 -6000 0 0 -2195z m3142 1901 c79 -17 121 -37 166 -80 82 -76 92 -142 92 -597 0 -492 45 -998 110 -1238 15 -57 51 -103 100 -131 41 -22 60 -25 195 -30 162 -6 186 -13 206 -62 28 -69 -14 -123 -286 -357 -560 -483 -1039 -859 -1300 -1019 -316 -193 -458 -207 -681 -65 -127 81 -243 151 -257 156 -9 3 -7 29 6 108 22 130 22 158 -1 246 -30 111 -69 180 -152 264 -115 117 -238 169 -400 169 -104 0 -184 -20 -268 -65 -34 -19 -69 -35 -76 -35 -7 0 -31 12 -54 28 -65 44 -383 335 -398 364 -21 40 -18 92 7 114 19 17 35 19 166 16 231 -5 246 6 273 190 10 68 39 314 65 548 116 1059 145 1317 151 1347 8 39 9 39 216 53 138 8 219 5 217 -9 -1 -12 -45 -90 -90 -157 -52 -78 -92 -165 -139 -304 -98 -289 -155 -779 -131 -1110 25 -338 85 -534 202 -652 100 -101 209 -111 360 -32 36 19 99 62 140 95 40 33 92 74 113 90 22 16 49 45 60 63 40 64 151 226 156 226 3 0 33 -67 68 -149 243 -576 726 -865 1111 -667 120 62 210 216 241 409 26 160 -9 491 -75 722 -14 50 -50 149 -79 221 l-53 132 19 36 c10 19 32 77 50 128 28 84 31 108 36 248 4 141 3 157 -14 177 -11 12 -29 24 -42 28 -19 6 -25 1 -42 -37 -10 -24 -29 -88 -40 -143 -30 -138 -53 -171 -85 -122 -11 18 -17 80 -25 273 -18 455 -46 604 -114 604 -59 0 -77 -80 -69 -299 5 -120 4 -144 -11 -166 -18 -28 -38 -32 -55 -12 -6 8 -20 79 -31 158 -24 166 -42 228 -77 270 -14 16 -23 32 -20 35 8 8 280 31 382 33 50 0 120 -6 157 -13z m-637 -43 c-17 -40 -23 -118 -17 -202 9 -105 8 -105 -79 -14 -45 48 -59 71 -78 130 -12 40 -26 75 -31 78 -29 18 1 25 101 25 102 0 111 -1 104 -17z m-255 -24 c-12 -42 -13 -43 -41 -13 -20 21 -21 27 -9 34 8 5 25 10 37 10 19 0 21 -3 13 -31z"/>
</g>
<g id="layer103" fill="#f47f21" stroke="none">
<path d="M0 2195 l0 -2195 6000 0 6000 0 0 2195 0 2195 -6000 0 -6000 0 0 -2195z m3142 1901 c79 -17 121 -37 166 -80 82 -76 92 -142 92 -597 0 -492 45 -998 110 -1238 15 -57 51 -103 100 -131 41 -22 60 -25 195 -30 162 -6 186 -13 206 -62 28 -69 -14 -123 -286 -357 -560 -483 -1039 -859 -1300 -1019 -316 -193 -458 -207 -681 -65 -127 81 -243 151 -257 156 -9 3 -7 29 6 108 22 130 22 158 -1 246 -30 111 -69 180 -152 264 -115 117 -238 169 -400 169 -104 0 -184 -20 -268 -65 -34 -19 -69 -35 -76 -35 -7 0 -31 12 -54 28 -65 44 -383 335 -398 364 -21 40 -18 92 7 114 19 17 35 19 166 16 231 -5 246 6 273 190 10 68 39 314 65 548 116 1059 145 1317 151 1347 5 27 12 34 38 38 61 10 325 24 360 18 29 -4 41 0 67 21 23 19 41 26 63 24 47 -5 56 -46 59 -267 2 -189 10 -231 42 -231 28 0 45 48 66 186 36 241 89 339 175 322 31 -6 57 -65 62 -143 6 -94 -8 -186 -70 -470 -41 -187 -51 -249 -52 -331 -1 -87 2 -105 18 -123 42 -47 56 -29 110 136 16 50 40 82 52 70 23 -23 30 -159 13 -269 -39 -250 -158 -398 -319 -398 -44 0 -136 28 -150 45 -7 8 -15 13 -19 10 -4 -2 -35 18 -68 45 -158 128 -267 360 -289 615 -9 100 -14 84 -49 -135 -64 -398 -53 -812 27 -1085 52 -177 145 -299 253 -330 49 -15 66 -15 118 -5 97 19 208 84 330 191 l39 34 -104 0 c-118 0 -207 25 -278 76 -96 70 -65 158 62 175 46 6 47 8 40 33 -14 52 -7 135 17 184 63 129 229 135 306 12 24 -39 30 -61 33 -119 3 -63 0 -78 -27 -131 -25 -50 -28 -61 -16 -68 8 -4 22 -22 31 -38 19 -39 25 -34 100 81 33 49 61 90 64 90 3 0 33 -67 68 -149 243 -576 726 -865 1111 -667 120 62 210 216 241 409 26 160 -9 492 -75 722 -22 77 -103 294 -124 333 -5 9 -20 -6 -46 -45 -82 -124 -220 -228 -350 -264 -34 -10 -101 -14 -215 -13 -148 1 -174 4 -254 28 -171 52 -341 158 -372 233 -8 18 -14 48 -14 68 0 31 3 35 26 35 14 0 78 -26 142 -57 106 -52 124 -58 193 -61 65 -3 82 -1 125 21 66 34 118 90 145 157 35 87 38 294 8 561 l-23 211 -65 63 c-36 35 -67 62 -69 61 -4 -4 30 -152 63 -271 72 -268 -15 -445 -214 -433 -76 4 -131 29 -192 86 -76 70 -112 77 -172 37 -44 -30 -57 -26 -57 19 0 69 56 104 180 115 l65 6 7 200 c7 212 28 395 47 419 18 21 38 9 50 -27 9 -28 31 -180 31 -214 0 -6 7 -19 17 -28 15 -16 17 -16 25 0 6 9 14 58 18 108 9 91 9 92 -17 119 -15 15 -23 31 -20 35 12 12 108 22 218 22 58 1 109 4 113 8 11 12 48 14 61 3 6 -5 14 -7 17 -4 9 8 279 31 383 33 50 0 120 -6 157 -13z m-856 -990 c24 -20 28 -32 32 -89 4 -63 3 -68 -26 -97 -39 -39 -107 -43 -140 -7 -29 31 -43 73 -36 105 24 99 108 142 170 88z m587 -599 c82 -45 123 -154 93 -246 -20 -62 -20 -61 5 -61 11 0 34 -14 51 -30 25 -26 29 -36 24 -62 -13 -65 -92 -114 -228 -142 -98 -20 -167 -20 -218 0 -44 18 -60 39 -60 79 0 40 16 62 65 90 42 25 44 28 30 48 -15 23 -22 52 -32 129 -5 39 -1 57 20 101 32 64 62 94 114 112 45 16 83 10 136 -18z"/>
<path d="M1147 3854 c-58 -91 -98 -181 -142 -321 l-13 -42 27 5 c42 9 59 -20 72 -117 16 -124 49 -146 68 -46 5 28 12 144 15 257 3 113 10 232 16 264 5 33 8 62 5 64 -2 2 -24 -27 -48 -64z"/>
</g>
<g id="layer104" fill="#ffe016" stroke="none">
<path d="M0 2195 l0 -2195 6000 0 6000 0 -1 1603 c-1 1370 -3 1597 -14 1571 -18 -41 -75 -88 -124 -103 -56 -16 -110 -14 -183 9 -182 56 -342 234 -343 381 0 94 43 134 204 186 130 43 167 93 126 172 -18 37 -71 81 -95 81 -40 0 -51 -64 -24 -135 30 -78 30 -75 -15 -75 -113 0 -221 97 -221 198 0 100 118 151 286 123 107 -18 186 -62 280 -155 62 -62 85 -93 98 -130 42 -128 -1 -184 -182 -231 -146 -39 -159 -47 -169 -108 -7 -45 36 -142 82 -187 l33 -32 17 26 c15 22 16 40 11 104 -13 159 -15 146 26 156 31 8 43 5 82 -18 49 -29 86 -72 110 -126 14 -32 15 18 16 523 l0 557 -1782 0 -1783 0 65 -23 c168 -60 293 -185 367 -369 31 -77 79 -265 88 -344 8 -68 -6 -113 -35 -121 -25 -7 -25 -6 1 -73 52 -137 -18 -222 -185 -223 -88 0 -154 16 -238 58 -174 87 -340 269 -388 424 -24 75 -26 190 -6 229 37 71 117 99 202 72 49 -16 162 -85 254 -155 38 -30 75 -55 81 -55 7 0 8 18 4 53 -18 151 -107 405 -138 394 -31 -10 -7 -184 35 -252 38 -64 18 -70 -77 -24 -121 60 -215 167 -215 247 0 63 38 123 95 148 25 11 -659 13 -4157 14 l-4188 0 0 -2195z m3211 1886 c118 -45 175 -127 183 -262 2 -41 6 -225 7 -409 1 -184 6 -371 10 -415 4 -44 10 -116 13 -160 27 -377 64 -606 114 -704 22 -44 37 -60 76 -80 44 -23 64 -26 203 -31 154 -5 155 -5 179 -33 48 -56 29 -115 -64 -205 -183 -178 -829 -714 -1167 -969 -249 -188 -480 -328 -615 -373 -53 -18 -82 -21 -155 -18 -105 4 -158 27 -331 140 -55 36 -120 76 -145 88 -24 12 -45 23 -46 24 -2 2 4 37 12 80 41 216 -5 392 -140 531 -176 181 -450 226 -663 110 -34 -19 -73 -35 -87 -35 -13 0 -45 16 -72 37 -66 50 -361 320 -378 347 -8 11 -17 39 -21 62 -6 38 -4 43 26 64 31 22 37 22 170 16 126 -7 143 -5 184 12 24 11 49 29 55 41 17 30 43 233 101 761 133 1219 140 1276 154 1295 13 16 257 39 367 34 55 -3 69 0 94 19 19 15 39 22 59 20 47 -5 56 -47 59 -267 2 -189 10 -231 42 -231 28 0 45 48 66 186 36 241 89 339 175 322 31 -6 57 -65 62 -143 6 -94 -8 -186 -70 -470 -41 -187 -51 -249 -52 -331 -1 -87 2 -105 18 -123 42 -47 56 -29 110 136 16 50 40 82 52 70 23 -23 30 -159 13 -269 -39 -250 -158 -398 -319 -398 -44 0 -136 28 -150 45 -7 8 -15 13 -19 10 -14 -8 -129 94 -176 157 -88 116 -174 338 -176 455 0 21 -4 56 -8 78 -7 39 -8 37 -24 -50 -44 -233 -51 -324 -51 -625 -1 -263 2 -308 21 -410 65 -338 180 -500 355 -500 99 0 233 65 352 171 l50 44 -95 6 c-109 6 -208 36 -269 80 -96 70 -65 158 62 175 46 6 47 8 40 33 -14 52 -7 135 17 184 63 129 229 135 306 12 24 -39 30 -61 33 -119 3 -63 0 -78 -26 -129 l-30 -58 22 -23 c11 -12 26 -30 31 -41 10 -16 20 -5 79 84 37 56 72 101 78 99 5 -2 35 -64 67 -138 139 -329 317 -538 569 -664 98 -50 170 -67 279 -67 104 -1 178 17 266 64 181 95 273 367 238 700 -14 128 -52 329 -82 432 -26 89 -118 325 -127 325 -4 0 -20 -21 -37 -48 -47 -74 -156 -175 -232 -214 -108 -56 -148 -63 -333 -62 -148 1 -174 4 -254 28 -171 52 -341 158 -372 233 -8 18 -14 48 -14 68 0 31 3 35 26 35 14 0 78 -26 142 -57 106 -52 124 -58 193 -61 65 -3 82 -1 125 21 66 34 118 90 145 157 35 87 38 294 8 561 l-23 210 -63 61 c-35 33 -66 59 -68 56 -5 -4 21 -120 59 -262 72 -272 -13 -446 -213 -434 -76 4 -131 29 -192 86 -76 70 -112 77 -172 37 -44 -30 -57 -26 -57 19 0 69 56 104 180 115 l65 6 7 200 c7 212 28 395 47 419 18 21 38 9 50 -27 9 -28 31 -180 31 -214 0 -6 7 -19 17 -28 15 -16 17 -16 25 0 6 9 13 57 18 107 9 89 8 90 -17 112 -36 31 -25 53 29 60 24 3 95 7 159 9 63 2 119 6 125 9 5 3 23 4 39 3 17 -1 86 4 155 11 69 7 195 11 280 10 131 -2 164 -6 211 -25z m4192 -53 c14 -13 63 -70 110 -128 46 -58 111 -134 144 -169 l59 -64 -1 99 c0 120 18 177 76 228 33 31 46 36 86 36 47 0 121 -28 143 -56 10 -11 9 -27 -5 -76 -13 -48 -16 -91 -14 -197 8 -324 7 -330 -24 -357 -36 -31 -92 -32 -150 -3 -23 12 -87 68 -143 126 l-101 104 13 -68 c7 -37 13 -103 14 -146 0 -71 -2 -80 -26 -104 -22 -22 -32 -25 -71 -20 -78 8 -125 70 -192 248 -42 110 -85 283 -96 384 -8 71 12 133 53 165 34 28 94 26 125 -2z m-3216 -4 c59 -20 154 -87 244 -171 l68 -64 6 48 c12 93 27 142 52 169 21 23 30 26 67 22 41 -5 149 -52 190 -83 19 -14 19 -16 -2 -107 -39 -168 -45 -225 -39 -387 6 -173 31 -337 77 -505 22 -79 28 -112 20 -120 -18 -18 -153 -13 -183 7 -45 29 -110 189 -148 365 -6 29 -14 52 -19 52 -4 0 -21 -7 -36 -15 -74 -39 -186 7 -304 124 -67 65 -85 92 -134 191 -119 243 -105 430 34 483 27 10 58 7 107 -9z m1994 -20 c50 -20 110 -89 151 -171 l31 -64 146 2 c116 2 154 -1 185 -15 21 -9 42 -16 46 -16 4 0 20 35 35 78 55 156 99 202 191 202 58 0 108 -18 171 -61 l42 -30 -39 -78 c-94 -186 -156 -385 -209 -668 -22 -117 -57 -211 -94 -252 -35 -38 -95 -61 -163 -61 -61 0 -158 23 -169 40 -3 5 4 29 16 53 l22 45 -44 78 c-24 44 -51 91 -59 105 -8 14 -51 91 -94 170 -43 79 -86 152 -94 162 -10 11 -29 17 -54 17 -54 0 -91 22 -138 81 -55 69 -55 103 0 128 l41 18 -44 59 c-64 87 -100 152 -93 169 3 9 16 20 28 25 30 13 139 3 189 -16z m-887 -8 c83 -30 160 -76 245 -146 70 -60 84 -86 55 -107 -32 -23 -72 -15 -135 28 -106 72 -181 90 -207 49 -11 -19 -10 -20 25 -20 84 0 243 -131 302 -248 72 -142 47 -284 -56 -327 -134 -56 -360 65 -475 256 -94 155 -129 340 -83 429 54 102 188 138 329 86z m4064 9 c69 -21 184 -87 258 -149 81 -68 91 -83 67 -106 -35 -34 -56 -32 -124 11 -114 74 -187 97 -217 67 -20 -20 -14 -28 20 -28 86 0 243 -132 305 -257 31 -63 37 -85 37 -141 1 -89 -24 -139 -85 -169 -51 -26 -94 -28 -165 -9 -184 49 -342 224 -404 448 -44 160 -17 259 88 320 56 33 137 37 220 13z m807 -17 c70 -36 148 -109 184 -171 54 -95 65 -197 22 -197 -11 0 -41 26 -71 61 -56 68 -79 88 -127 113 -40 20 -77 21 -93 1 -23 -27 -23 -133 -1 -240 42 -206 156 -503 198 -519 14 -6 15 2 9 56 -15 136 -72 321 -140 458 -43 86 -45 100 -10 100 118 0 294 -231 334 -437 19 -97 9 -211 -23 -265 -27 -47 -75 -78 -119 -78 -112 0 -277 167 -408 414 -126 236 -176 445 -140 577 13 45 72 114 113 133 56 25 61 26 142 23 62 -3 91 -9 130 -29z m709 -23 c74 -26 182 -94 254 -161 71 -65 76 -85 25 -105 -31 -12 -45 -6 -152 61 -80 50 -121 59 -159 34 l-27 -18 42 -8 c68 -11 113 -38 190 -112 119 -113 171 -240 143 -355 -30 -125 -164 -156 -326 -76 -40 19 -95 56 -123 81 -118 106 -220 319 -221 459 0 93 43 164 123 204 34 17 55 21 112 17 39 -2 92 -11 119 -21z m-8588 -859 c24 -20 28 -32 32 -89 4 -63 3 -68 -26 -97 -39 -39 -107 -43 -140 -7 -29 31 -43 73 -36 105 24 99 108 142 170 88z m587 -599 c82 -45 123 -154 93 -246 -20 -62 -20 -61 5 -61 11 0 34 -14 51 -30 25 -26 29 -36 24 -62 -13 -65 -92 -114 -228 -142 -98 -20 -167 -20 -218 0 -44 18 -60 39 -60 79 0 40 16 62 65 90 42 25 44 28 30 48 -15 23 -22 52 -32 129 -5 39 -1 57 20 101 32 64 62 94 114 112 45 16 83 10 136 -18z m7732 -192 c212 -55 396 -288 329 -416 -15 -30 -99 -79 -134 -79 -27 0 -175 -52 -192 -68 -13 -10 -18 -30 -18 -63 0 -89 101 -236 130 -189 19 30 22 99 7 171 -18 86 -12 99 43 99 61 0 136 -59 171 -135 42 -91 8 -194 -77 -238 -157 -81 -441 56 -536 258 -38 83 -43 160 -12 202 27 37 102 77 193 105 99 29 131 57 131 112 0 51 -35 106 -82 129 -32 16 -34 16 -50 -4 -23 -28 -22 -73 2 -128 32 -69 29 -74 -35 -69 -66 6 -122 40 -173 108 -30 39 -34 50 -30 92 6 56 27 83 83 109 51 23 168 25 250 4z m-5569 -130 c27 -8 61 -27 76 -42 29 -32 66 -120 99 -238 12 -44 28 -85 35 -91 12 -9 272 -8 283 2 1 1 -6 31 -17 66 -54 172 -67 244 -52 274 31 56 142 46 241 -22 44 -30 65 -68 115 -208 l39 -108 51 -23 c50 -22 100 -74 125 -128 19 -41 -3 -76 -54 -84 -46 -7 -47 2 16 -168 50 -132 79 -255 70 -297 -9 -45 -45 -76 -98 -83 -94 -15 -156 26 -208 136 -36 76 -123 317 -131 362 -4 21 -12 40 -19 42 -7 2 -76 6 -154 9 l-141 5 8 -27 c15 -49 52 -166 82 -257 55 -167 48 -229 -27 -261 -69 -29 -145 -14 -191 38 -43 46 -96 175 -160 388 -34 110 -37 116 -89 162 -59 53 -92 119 -81 163 4 14 10 25 14 25 5 0 16 6 26 13 16 12 16 15 -2 67 -25 69 -42 144 -44 193 -2 57 47 98 128 106 6 1 33 -6 60 -14z m4579 -4 c57 -27 98 -60 191 -152 l81 -81 7 69 c9 82 37 146 72 161 61 28 162 2 218 -57 24 -25 26 -31 14 -57 -7 -19 -12 -95 -13 -215 -1 -102 -5 -191 -9 -198 -4 -6 -16 -11 -28 -11 -17 0 -19 -4 -12 -22 4 -13 8 -52 8 -87 1 -60 -1 -65 -34 -92 -71 -60 -219 -77 -327 -39 -165 58 -340 222 -417 393 -40 87 -49 124 -48 199 1 86 41 151 117 191 41 22 131 21 180 -2z m-3309 -26 c38 -19 126 -77 195 -130 70 -52 128 -95 130 -95 2 0 4 30 4 68 0 75 20 120 68 155 35 27 136 34 192 14 54 -19 64 -42 53 -119 -5 -35 -6 -154 -3 -266 8 -222 2 -257 -42 -268 -50 -13 -103 25 -282 203 -96 95 -178 173 -182 173 -13 0 -18 -30 -9 -55 5 -14 35 -82 65 -151 64 -144 74 -193 51 -247 -36 -87 -174 -89 -239 -4 -77 101 -159 357 -176 547 -11 122 7 177 64 201 32 13 38 11 111 -26z m1057 4 c79 -26 173 -82 260 -153 83 -70 88 -103 17 -121 -19 -4 -42 6 -101 44 -97 64 -156 82 -193 58 -35 -23 -33 -35 4 -29 82 12 253 -129 316 -261 31 -65 36 -87 35 -142 -2 -121 -47 -176 -152 -183 -236 -17 -499 268 -516 560 -5 75 -3 92 16 131 51 105 174 143 314 96z m808 -20 c125 -66 219 -197 219 -305 0 -84 -20 -83 -92 6 -85 106 -176 153 -218 115 -17 -15 -20 -31 -20 -97 0 -100 20 -199 75 -363 49 -147 84 -232 116 -276 32 -45 42 -25 29 57 -27 164 -82 332 -150 456 -17 32 -29 62 -25 68 12 19 62 10 108 -21 126 -83 233 -263 258 -432 15 -99 8 -171 -19 -228 -32 -64 -64 -84 -137 -84 -55 0 -66 4 -113 38 -106 78 -226 241 -317 430 -69 142 -102 248 -114 365 -12 110 2 172 51 228 55 62 114 85 214 80 57 -2 82 -9 135 -37z m774 5 c117 -57 215 -185 230 -300 6 -40 4 -53 -9 -64 -15 -12 -26 -3 -99 73 -106 112 -177 144 -211 95 -21 -29 -21 -121 0 -228 34 -183 161 -514 202 -528 47 -15 -41 331 -129 506 -26 53 -46 99 -43 104 11 17 62 7 105 -20 96 -61 182 -179 235 -322 24 -65 27 -90 28 -190 1 -100 -2 -120 -21 -156 -28 -52 -59 -72 -125 -80 -50 -6 -56 -4 -115 36 -190 127 -419 539 -441 794 -14 153 23 234 129 289 48 26 62 28 129 24 57 -3 89 -11 135 -33z"/>
</g>
<g id="layer105" fill="#fffffe" stroke="none">
<path d="M0 2614 c0 -1693 1 -1775 18 -1756 22 26 200 77 236 68 34 -8 58 -56 58 -114 0 -38 -5 -51 -27 -70 -26 -22 -32 -23 -134 -17 -127 8 -129 8 -141 37 -5 15 -9 -122 -9 -369 l-1 -393 490 0 491 0 -20 27 c-23 32 -65 176 -63 212 3 41 37 68 94 74 94 12 112 -16 109 -163 -3 -111 -11 -135 -55 -143 -11 -2 2448 -5 5467 -6 l5487 -1 -1 1603 c-1 1370 -3 1597 -14 1571 -18 -41 -75 -88 -124 -103 -56 -16 -110 -14 -183 9 -182 56 -342 234 -343 381 0 94 43 134 204 186 130 43 167 93 126 172 -18 37 -71 81 -95 81 -40 0 -51 -64 -24 -135 30 -78 30 -75 -15 -75 -113 0 -221 97 -221 198 0 100 118 151 286 123 107 -18 186 -62 280 -155 62 -62 85 -93 98 -130 42 -128 -1 -184 -182 -231 -146 -39 -159 -47 -169 -108 -7 -45 36 -142 82 -187 l33 -32 17 26 c15 22 16 40 11 104 -13 159 -15 146 26 156 31 8 43 5 82 -18 49 -29 86 -72 110 -126 14 -32 15 18 16 523 l0 557 -1782 0 -1783 0 65 -23 c168 -60 293 -185 367 -369 31 -77 79 -265 88 -344 8 -68 -6 -113 -35 -121 -25 -7 -25 -6 1 -73 52 -137 -18 -222 -185 -223 -88 0 -154 16 -238 58 -174 87 -340 269 -388 424 -24 75 -26 190 -6 229 37 71 117 99 202 72 49 -16 162 -85 254 -155 38 -30 75 -55 81 -55 7 0 8 18 4 53 -18 151 -107 405 -138 394 -31 -10 -7 -184 35 -252 38 -64 18 -70 -77 -24 -121 60 -215 167 -215 247 0 63 38 123 95 148 25 11 -659 13 -4157 14 l-4188 0 0 -1776z m3211 1467 c118 -45 175 -127 183 -262 2 -41 6 -225 7 -409 1 -184 6 -371 10 -415 4 -44 10 -116 13 -160 27 -377 64 -606 114 -704 22 -44 37 -60 76 -80 44 -23 64 -26 203 -31 154 -5 155 -5 179 -33 48 -56 29 -115 -64 -205 -183 -178 -829 -714 -1167 -969 -249 -188 -480 -328 -615 -373 -53 -18 -82 -21 -155 -18 -105 4 -158 27 -331 140 -55 36 -120 76 -145 88 -24 12 -45 23 -46 24 -2 2 4 37 12 80 41 216 -5 392 -140 531 -176 181 -450 226 -663 110 -34 -19 -73 -35 -87 -35 -13 0 -45 16 -72 37 -66 50 -361 320 -378 347 -8 11 -17 39 -21 62 -6 38 -4 43 26 64 31 22 37 22 170 16 126 -7 143 -5 184 12 24 11 49 29 55 41 17 30 43 233 101 761 133 1219 140 1276 154 1295 13 16 257 39 367 34 55 -3 69 0 94 19 19 15 39 22 59 20 47 -5 56 -47 59 -267 2 -189 10 -231 42 -231 28 0 45 48 66 186 36 241 89 339 175 322 31 -6 57 -65 62 -143 6 -94 -8 -186 -70 -470 -41 -187 -51 -249 -52 -331 -1 -87 2 -105 18 -123 42 -47 56 -29 110 136 16 50 40 82 52 70 23 -23 30 -159 13 -269 -39 -250 -158 -398 -319 -398 -44 0 -136 28 -150 45 -7 8 -15 13 -19 10 -14 -8 -129 94 -176 157 -88 116 -174 338 -176 455 0 21 -4 56 -8 78 -7 39 -8 37 -24 -50 -44 -233 -51 -324 -51 -625 -1 -263 2 -308 21 -410 65 -338 180 -500 355 -500 99 0 233 65 352 171 l50 44 -95 6 c-109 6 -208 36 -269 80 -96 70 -65 158 62 175 46 6 47 8 40 33 -14 52 -7 135 17 184 63 129 229 135 306 12 24 -39 30 -61 33 -119 3 -63 0 -78 -26 -129 l-30 -58 22 -23 c11 -12 26 -30 31 -41 10 -16 20 -5 79 84 37 56 72 101 78 99 5 -2 35 -64 67 -138 139 -329 317 -538 569 -664 98 -50 170 -67 279 -67 104 -1 178 17 266 64 181 95 273 367 238 700 -14 128 -52 329 -82 432 -26 89 -118 325 -127 325 -4 0 -20 -21 -37 -48 -47 -74 -156 -175 -232 -214 -108 -56 -148 -63 -333 -62 -148 1 -174 4 -254 28 -171 52 -341 158 -372 233 -8 18 -14 48 -14 68 0 31 3 35 26 35 14 0 78 -26 142 -57 106 -52 124 -58 193 -61 65 -3 82 -1 125 21 66 34 118 90 145 157 35 87 38 294 8 561 l-23 210 -63 61 c-35 33 -66 59 -68 56 -5 -4 21 -120 59 -262 72 -272 -13 -446 -213 -434 -76 4 -131 29 -192 86 -76 70 -112 77 -172 37 -44 -30 -57 -26 -57 19 0 69 56 104 180 115 l65 6 7 200 c7 212 28 395 47 419 18 21 38 9 50 -27 9 -28 31 -180 31 -214 0 -6 7 -19 17 -28 15 -16 17 -16 25 0 6 9 13 57 18 107 9 89 8 90 -17 112 -36 31 -25 53 29 60 24 3 95 7 159 9 63 2 119 6 125 9 5 3 23 4 39 3 17 -1 86 4 155 11 69 7 195 11 280 10 131 -2 164 -6 211 -25z m4192 -53 c14 -13 63 -70 110 -128 46 -58 111 -134 144 -169 l59 -64 -1 99 c0 120 18 177 76 228 33 31 46 36 86 36 47 0 121 -28 143 -56 10 -11 9 -27 -5 -76 -13 -48 -16 -91 -14 -197 8 -324 7 -330 -24 -357 -36 -31 -92 -32 -150 -3 -23 12 -87 68 -143 126 l-101 104 13 -68 c7 -37 13 -103 14 -146 0 -71 -2 -80 -26 -104 -22 -22 -32 -25 -71 -20 -78 8 -125 70 -192 248 -42 110 -85 283 -96 384 -8 71 12 133 53 165 34 28 94 26 125 -2z m-3216 -4 c59 -20 154 -87 244 -171 l68 -64 6 48 c12 93 27 142 52 169 21 23 30 26 67 22 41 -5 149 -52 190 -83 19 -14 19 -16 -2 -107 -39 -168 -45 -225 -39 -387 6 -173 31 -337 77 -505 22 -79 28 -112 20 -120 -18 -18 -153 -13 -183 7 -45 29 -110 189 -148 365 -6 29 -14 52 -19 52 -4 0 -21 -7 -36 -15 -74 -39 -186 7 -304 124 -67 65 -85 92 -134 191 -119 243 -105 430 34 483 27 10 58 7 107 -9z m1994 -20 c50 -20 110 -89 151 -171 l31 -64 146 2 c116 2 154 -1 185 -15 21 -9 42 -16 46 -16 4 0 20 35 35 78 55 156 99 202 191 202 58 0 108 -18 171 -61 l42 -30 -39 -78 c-94 -186 -156 -385 -209 -668 -22 -117 -57 -211 -94 -252 -35 -38 -95 -61 -163 -61 -61 0 -158 23 -169 40 -3 5 4 29 16 53 l22 45 -44 78 c-24 44 -51 91 -59 105 -8 14 -51 91 -94 170 -43 79 -86 152 -94 162 -10 11 -29 17 -54 17 -52 0 -89 21 -132 73 -38 47 -56 85 -48 106 2 7 22 21 43 31 l40 17 -44 59 c-64 87 -100 152 -93 169 3 9 16 20 28 25 30 13 139 3 189 -16z m-887 -8 c83 -30 160 -76 245 -146 70 -60 84 -86 55 -107 -32 -23 -72 -15 -135 28 -106 72 -181 90 -207 49 -11 -19 -10 -20 25 -20 84 0 243 -131 302 -248 72 -142 47 -284 -56 -327 -134 -56 -360 65 -475 256 -94 155 -129 340 -83 429 54 102 188 138 329 86z m4064 9 c69 -21 184 -87 258 -149 81 -68 91 -83 67 -106 -35 -34 -56 -32 -124 11 -114 74 -187 97 -217 67 -20 -20 -14 -28 20 -28 86 0 243 -132 305 -257 31 -63 37 -85 37 -141 1 -89 -24 -139 -85 -169 -51 -26 -94 -28 -165 -9 -184 49 -342 224 -404 448 -44 160 -17 259 88 320 56 33 137 37 220 13z m808 -18 c78 -39 156 -116 192 -189 39 -76 50 -144 29 -173 -16 -21 -16 -22 -124 98 -68 74 -153 108 -183 72 -23 -27 -23 -133 -1 -240 42 -206 156 -503 198 -519 14 -6 15 2 9 56 -15 136 -72 321 -140 458 -43 86 -45 100 -10 100 118 0 294 -231 334 -437 19 -97 9 -211 -23 -265 -27 -47 -75 -78 -119 -78 -112 0 -277 167 -408 414 -126 236 -176 445 -140 577 13 45 72 114 113 133 56 25 61 26 142 23 62 -3 91 -9 131 -30z m708 -22 c74 -26 182 -94 254 -161 71 -65 76 -85 25 -105 -31 -12 -45 -6 -152 61 -80 50 -121 59 -159 34 l-27 -18 42 -8 c68 -11 113 -38 190 -112 119 -113 171 -240 143 -355 -30 -125 -164 -156 -326 -76 -40 19 -95 56 -123 81 -118 106 -220 319 -221 459 0 93 43 164 123 204 34 17 55 21 112 17 39 -2 92 -11 119 -21z m-8588 -859 c24 -20 28 -32 32 -89 4 -63 3 -68 -26 -97 -39 -39 -107 -43 -140 -7 -29 31 -43 73 -36 105 24 99 108 142 170 88z m587 -599 c82 -45 123 -154 93 -246 -20 -62 -20 -61 5 -61 11 0 34 -14 51 -30 25 -26 29 -36 24 -62 -13 -65 -92 -114 -228 -142 -98 -20 -167 -20 -218 0 -44 18 -60 39 -60 79 0 40 16 62 65 90 42 25 44 28 30 48 -15 23 -22 52 -32 129 -5 39 -1 57 20 101 32 64 62 94 114 112 45 16 83 10 136 -18z m7732 -192 c212 -55 396 -288 329 -416 -15 -30 -99 -79 -134 -79 -27 0 -175 -52 -192 -68 -13 -10 -18 -30 -18 -63 0 -89 101 -236 130 -189 19 30 22 99 7 171 -18 86 -12 99 43 99 61 0 136 -59 171 -135 42 -91 8 -194 -77 -238 -157 -81 -441 56 -536 258 -38 83 -43 160 -12 202 27 37 102 77 193 105 99 29 131 57 131 112 0 51 -35 106 -82 129 -32 16 -34 16 -50 -4 -23 -28 -22 -73 2 -128 32 -69 29 -74 -35 -69 -66 6 -122 40 -173 108 -30 39 -34 50 -30 92 6 56 27 83 83 109 51 23 168 25 250 4z m-5569 -130 c27 -8 61 -27 76 -42 29 -32 66 -120 99 -238 12 -44 28 -85 35 -91 12 -9 272 -8 283 2 1 1 -6 31 -17 66 -54 172 -67 244 -52 274 31 56 142 46 241 -22 44 -30 65 -68 115 -208 l39 -108 51 -23 c50 -22 100 -74 125 -128 19 -41 -3 -76 -54 -84 -46 -7 -47 2 16 -168 50 -132 79 -255 70 -297 -9 -45 -45 -76 -98 -83 -94 -15 -156 26 -208 136 -35 76 -108 273 -127 344 l-15 60 -150 7 c-82 3 -151 6 -152 5 0 -1 9 -33 22 -72 109 -333 120 -386 91 -431 -22 -32 -73 -54 -126 -54 -114 0 -169 88 -276 440 -34 110 -37 116 -89 162 -59 53 -92 119 -81 163 4 14 10 25 14 25 5 0 16 6 26 13 16 12 16 15 -2 67 -25 69 -42 144 -44 193 -2 57 47 98 128 106 6 1 33 -6 60 -14z m4579 -4 c57 -27 98 -60 191 -152 l81 -81 7 69 c9 82 37 146 72 161 61 28 162 2 218 -57 24 -25 26 -31 14 -57 -7 -19 -12 -95 -13 -215 -1 -102 -5 -191 -9 -198 -4 -6 -16 -11 -28 -11 -17 0 -19 -4 -12 -22 4 -13 8 -52 8 -87 1 -60 -1 -65 -34 -92 -71 -60 -219 -77 -327 -39 -165 58 -340 222 -417 393 -40 87 -49 124 -48 199 1 86 41 151 117 191 41 22 131 21 180 -2z m-3309 -26 c38 -19 126 -77 195 -130 70 -52 128 -95 130 -95 2 0 4 30 4 68 0 75 20 120 68 155 35 27 136 34 192 14 54 -19 64 -42 53 -119 -5 -35 -6 -154 -3 -266 8 -222 2 -257 -42 -268 -50 -13 -103 25 -282 203 -96 95 -178 173 -182 173 -13 0 -18 -30 -9 -55 5 -14 35 -82 65 -151 64 -144 74 -193 51 -247 -36 -87 -174 -89 -239 -4 -77 101 -159 357 -176 547 -11 122 7 177 64 201 32 13 38 11 111 -26z m1057 4 c79 -26 173 -82 260 -153 83 -70 88 -103 17 -121 -19 -4 -42 6 -101 44 -97 64 -156 82 -193 58 -35 -23 -33 -35 4 -29 82 12 253 -129 316 -261 31 -65 36 -87 35 -142 -2 -121 -47 -176 -152 -183 -236 -17 -499 268 -516 560 -5 75 -3 92 16 131 51 105 174 143 314 96z m808 -20 c125 -66 219 -197 219 -305 0 -84 -20 -83 -92 6 -85 106 -176 153 -218 115 -17 -15 -20 -31 -20 -97 0 -100 20 -199 75 -363 49 -147 84 -232 116 -276 32 -45 42 -25 29 57 -27 164 -82 332 -150 456 -17 32 -29 62 -25 68 12 19 62 10 108 -21 126 -83 233 -263 258 -432 15 -99 8 -171 -19 -228 -32 -64 -64 -84 -137 -84 -55 0 -66 4 -113 38 -106 78 -226 241 -317 430 -69 142 -102 248 -114 365 -12 110 2 172 51 228 55 62 114 85 214 80 57 -2 82 -9 135 -37z m774 5 c117 -57 215 -185 230 -300 6 -40 4 -53 -9 -64 -15 -12 -26 -3 -99 73 -106 112 -177 144 -211 95 -21 -29 -21 -121 0 -228 34 -183 161 -514 202 -528 47 -15 -41 331 -129 506 -26 53 -46 99 -43 104 11 17 62 7 105 -20 96 -61 182 -179 235 -322 24 -65 27 -90 28 -190 1 -100 -2 -120 -21 -156 -28 -52 -59 -72 -125 -80 -50 -6 -56 -4 -115 36 -190 127 -419 539 -441 794 -14 153 23 234 129 289 48 26 62 28 129 24 57 -3 89 -11 135 -33z m-8594 -681 c46 -26 89 -54 96 -62 24 -31 15 -83 -22 -125 -28 -34 -40 -40 -71 -40 -34 0 -44 7 -111 79 -41 43 -76 89 -79 101 -9 34 40 94 76 94 15 0 65 -21 111 -47z m633 -63 c188 -28 347 -168 402 -356 20 -68 15 -222 -10 -289 -45 -124 -133 -223 -248 -279 -234 -115 -506 -31 -638 194 -143 244 -51 552 202 678 70 36 141 56 208 61 8 0 46 -4 84 -9z m599 -888 c87 -86 94 -110 51 -161 -34 -41 -57 -39 -151 10 -85 44 -123 79 -123 110 0 40 50 107 90 122 29 10 56 -6 133 -81z m-1036 -79 c35 -27 43 -42 43 -82 0 -20 -19 -45 -77 -103 -43 -42 -87 -79 -99 -82 -13 -4 -33 2 -54 17 -43 28 -55 74 -29 108 10 13 19 29 19 35 0 6 18 38 39 72 52 79 89 87 158 35z"/>
<path d="M1162 3871 c-41 -56 -104 -189 -136 -285 -32 -95 -32 -94 -3 -89 37 7 56 -25 68 -118 16 -124 49 -146 68 -46 5 28 12 147 16 262 3 116 10 233 14 260 5 28 7 52 6 53 -2 2 -17 -15 -33 -37z"/>
<path d="M2205 3521 c-72 -43 -116 -130 -92 -180 15 -33 47 -38 78 -13 23 20 24 20 60 -1 31 -18 41 -19 63 -9 23 10 26 18 26 60 0 38 -7 59 -31 96 -26 38 -55 66 -71 66 -2 0 -17 -8 -33 -19z"/>
<path d="M1357 2092 c-16 -25 143 -72 242 -72 56 0 63 2 51 14 -40 37 -277 85 -293 58z"/>
<path d="M4279 3753 c-28 -53 -11 -185 42 -319 22 -55 61 -100 77 -90 36 22 57 197 33 259 -16 42 -4 51 35 28 l34 -20 0 22 c0 42 -129 147 -180 147 -19 0 -31 -8 -41 -27z"/>
<path d="M6472 3541 c15 -44 145 -310 151 -311 4 0 7 8 7 18 0 10 14 80 30 155 17 76 30 140 30 142 0 3 -50 5 -111 5 -65 0 -109 -4 -107 -9z"/>
<path d="M5230 3718 c0 -23 7 -71 16 -107 20 -80 93 -239 122 -265 20 -17 22 -18 28 -2 19 50 -14 216 -62 308 -18 35 -83 108 -95 108 -5 0 -9 -19 -9 -42z"/>
<path d="M9320 3699 c0 -109 100 -354 145 -354 18 0 20 6 17 70 -1 39 -12 101 -24 139 -24 76 -85 179 -117 196 -20 10 -21 8 -21 -51z"/>
<path d="M10813 3648 c11 -146 137 -402 163 -333 10 26 -5 143 -27 209 -34 102 -95 196 -127 196 -12 0 -14 -13 -9 -72z"/>
<path d="M2795 2109 c-62 -10 -130 -36 -145 -55 -11 -12 -4 -14 47 -14 87 0 243 45 243 71 0 11 -76 10 -145 -2z"/>
<path d="M9644 1929 c-14 -16 -19 -36 -19 -84 0 -54 6 -74 43 -147 42 -83 116 -179 153 -199 17 -9 22 -5 34 25 22 53 18 94 -15 164 -17 35 -27 68 -24 74 4 6 28 7 63 3 l56 -7 -45 47 c-65 68 -173 145 -202 145 -14 0 -33 -9 -44 -21z"/>
<path d="M7316 1905 c-10 -27 -7 -58 14 -141 33 -129 115 -284 141 -268 14 8 10 115 -6 179 -21 83 -67 174 -108 213 -29 28 -35 31 -41 17z"/>
<path d="M8420 3780 c-28 -53 47 -247 135 -347 47 -54 109 -98 123 -89 5 3 5 32 1 66 -9 60 -35 123 -70 169 -25 31 -16 41 32 41 l41 0 -29 23 c-67 56 -204 157 -213 157 -5 0 -14 -9 -20 -20z"/>
</g>


</svg>